<svg width="1152" height="140" viewBox="0 0 1152 140" fill="none" xmlns="http://www.w3.org/2000/svg">
<rect width="1152" height="140" fill="#47879A"/>
<path d="M484.605 30H463.395C460.972 30 459 31.9716 459 34.3945V55.6055C459 58.0284 460.972 60 463.395 60H472.242V49.3945H468.727V44.1211H472.242V40.5469C472.242 37.6389 474.608 35.2734 477.516 35.2734H482.848V40.5469H477.516V44.1211H482.848L481.969 49.3945H477.516V60H484.605C487.028 60 489 58.0284 489 55.6055V34.3945C489 31.9716 487.028 30 484.605 30Z" fill="#21243D"/>
<path d="M686.605 30H665.395C662.972 30 661 31.9716 661 34.3945V55.6055C661 58.0284 662.972 60 665.395 60H686.605C689.028 60 691 58.0284 691 55.6055V34.3945C691 31.9716 689.028 30 686.605 30ZM671.605 53.7891H668.09V41.4844H671.605V53.7891ZM671.605 39.7266H668.09V36.2109H671.605V39.7266ZM683.91 53.7891H680.395V46.7578C680.395 45.7887 679.606 45 678.637 45C677.668 45 676.879 45.7887 676.879 46.7578V53.7891H673.363V41.4844H676.879V42.147C677.8 41.8607 678.398 41.4844 679.516 41.4844C681.9 41.4869 683.91 43.6258 683.91 46.1536V53.7891Z" fill="#21243D"/>
<path d="M625.923 33.5515C624.55 34.1538 623.087 34.5531 621.562 34.7469C623.131 33.81 624.328 32.3377 624.892 30.5631C623.428 31.4354 621.813 32.0515 620.092 32.3954C618.702 30.9162 616.722 30 614.562 30C610.372 30 606.998 33.4015 606.998 37.5715C606.998 38.1715 607.048 38.7485 607.173 39.2977C600.88 38.9908 595.312 35.9746 591.571 31.38C590.918 32.5131 590.535 33.81 590.535 35.2062C590.535 37.8277 591.885 40.1515 593.897 41.4969C592.681 41.4738 591.488 41.1208 590.477 40.5646C590.477 40.5877 590.477 40.6177 590.477 40.6477C590.477 44.3262 593.101 47.3815 596.542 48.0854C595.925 48.2538 595.254 48.3346 594.557 48.3346C594.072 48.3346 593.583 48.3069 593.124 48.2054C594.105 51.2031 596.888 53.4069 600.197 53.4785C597.622 55.4931 594.352 56.7069 590.812 56.7069C590.191 56.7069 589.595 56.6792 589 56.6031C592.353 58.7654 596.327 60 600.612 60C614.542 60 622.157 48.4615 622.157 38.46C622.157 38.1254 622.145 37.8023 622.129 37.4815C623.632 36.4154 624.894 35.0838 625.923 33.5515Z" fill="#21243D"/>
<path d="M545.721 30H532.279C527.714 30 524 33.714 524 38.2789V51.7211C524 56.2862 527.714 60 532.279 60H545.721C550.286 60 554 56.286 554 51.7211V38.2789C554 33.714 550.286 30 545.721 30ZM551.338 51.7211C551.338 54.8185 548.818 57.3383 545.721 57.3383H532.279C529.182 57.3384 526.662 54.8185 526.662 51.7211V38.2789C526.662 35.1817 529.182 32.6617 532.279 32.6617H545.721C548.818 32.6617 551.338 35.1817 551.338 38.2789V51.7211H551.338Z" fill="#21243D"/>
<path d="M539 37.2701C534.737 37.2701 531.27 40.7379 531.27 45.0004C531.27 49.2627 534.737 52.7303 539 52.7303C543.263 52.7303 546.73 49.2627 546.73 45.0004C546.73 40.7379 543.263 37.2701 539 37.2701ZM539 50.0683C536.205 50.0683 533.932 47.7949 533.932 45.0002C533.932 42.2054 536.205 39.9317 539 39.9317C541.795 39.9317 544.069 42.2054 544.069 45.0002C544.069 47.7949 541.795 50.0683 539 50.0683Z" fill="#21243D"/>
<path d="M547.054 35.0132C546.542 35.0132 546.038 35.2208 545.676 35.5846C545.312 35.9466 545.103 36.4505 545.103 36.9651C545.103 37.4781 545.312 37.9819 545.676 38.3457C546.038 38.7077 546.542 38.9171 547.054 38.9171C547.569 38.9171 548.071 38.7077 548.435 38.3457C548.799 37.9819 549.006 37.478 549.006 36.9651C549.006 36.4505 548.799 35.9466 548.435 35.5846C548.073 35.2208 547.569 35.0132 547.054 35.0132Z" fill="#21243D"/>
<path d="M472.659 97.8418C472.591 98.4661 472.411 99.029 472.119 99.5303C471.827 100.027 471.415 100.419 470.882 100.706C470.349 100.993 469.681 101.137 468.879 101.137C468.1 101.137 467.418 100.948 466.835 100.569C466.252 100.187 465.798 99.6488 465.475 98.9561C465.151 98.2633 464.989 97.4544 464.989 96.5293V95.5244C464.989 94.5947 465.151 93.7858 465.475 93.0977C465.803 92.4049 466.268 91.8672 466.869 91.4844C467.471 91.1016 468.182 90.9102 469.002 90.9102C469.754 90.9102 470.39 91.0514 470.909 91.334C471.429 91.612 471.832 92.0016 472.119 92.5029C472.411 93.0042 472.591 93.583 472.659 94.2393H471.333C471.233 93.542 471.009 92.9928 470.663 92.5918C470.321 92.1862 469.768 91.9834 469.002 91.9834C468.414 91.9834 467.922 92.1315 467.525 92.4277C467.129 92.7194 466.828 93.1296 466.623 93.6582C466.423 94.1868 466.322 94.8044 466.322 95.5107V96.5293C466.322 97.181 466.413 97.7757 466.596 98.3135C466.778 98.8467 467.056 99.2728 467.43 99.5918C467.808 99.9108 468.291 100.07 468.879 100.07C469.439 100.07 469.884 99.9814 470.212 99.8037C470.545 99.626 470.795 99.3708 470.964 99.0381C471.137 98.7054 471.26 98.3066 471.333 97.8418H472.659ZM473.924 97.2266C473.924 96.5111 474.061 95.8708 474.334 95.3057C474.607 94.7406 474.995 94.2939 475.496 93.9658C475.997 93.6331 476.592 93.4668 477.28 93.4668C477.978 93.4668 478.579 93.6331 479.085 93.9658C479.591 94.2939 479.978 94.7406 480.247 95.3057C480.521 95.8708 480.657 96.5111 480.657 97.2266V97.3838C480.657 98.0947 480.521 98.735 480.247 99.3047C479.978 99.8698 479.591 100.316 479.085 100.645C478.584 100.973 477.987 101.137 477.294 101.137C476.601 101.137 476.002 100.973 475.496 100.645C474.995 100.316 474.607 99.8698 474.334 99.3047C474.061 98.735 473.924 98.0947 473.924 97.3838V97.2266ZM475.202 97.3838C475.202 97.8714 475.28 98.3226 475.435 98.7373C475.59 99.152 475.82 99.4847 476.125 99.7354C476.435 99.986 476.825 100.111 477.294 100.111C477.759 100.111 478.144 99.986 478.449 99.7354C478.759 99.4847 478.992 99.152 479.146 98.7373C479.301 98.3226 479.379 97.8714 479.379 97.3838V97.2266C479.379 96.7389 479.301 96.2878 479.146 95.873C478.992 95.4583 478.759 95.1257 478.449 94.875C478.139 94.6198 477.75 94.4922 477.28 94.4922C476.82 94.4922 476.435 94.6198 476.125 94.875C475.815 95.1257 475.583 95.4583 475.428 95.873C475.277 96.2878 475.202 96.7389 475.202 97.2266V97.3838ZM483.528 103.844H482.25V93.6035H483.412L483.528 95.0254V103.844ZM488.505 97.3838C488.505 98.1038 488.393 98.7464 488.17 99.3115C487.947 99.8766 487.621 100.323 487.192 100.651C486.769 100.975 486.251 101.137 485.641 101.137C485.007 101.137 484.476 101 484.048 100.727C483.619 100.453 483.285 100.066 483.043 99.5645C482.801 99.0586 482.644 98.4616 482.571 97.7734V96.9805C482.644 96.2559 482.801 95.6315 483.043 95.1074C483.289 94.5833 483.624 94.18 484.048 93.8975C484.476 93.6104 485 93.4668 485.62 93.4668C486.24 93.4668 486.764 93.624 487.192 93.9385C487.621 94.2529 487.947 94.695 488.17 95.2646C488.393 95.8298 488.505 96.4883 488.505 97.2402V97.3838ZM487.227 97.2402C487.227 96.748 487.156 96.2969 487.015 95.8867C486.878 95.472 486.661 95.1416 486.365 94.8955C486.074 94.6494 485.698 94.5264 485.237 94.5264C484.923 94.5264 484.649 94.5811 484.417 94.6904C484.185 94.7998 483.986 94.9479 483.822 95.1348C483.658 95.3171 483.524 95.5267 483.419 95.7637C483.319 95.9961 483.243 96.2376 483.193 96.4883V98.2725C483.285 98.5915 483.41 98.8923 483.569 99.1748C483.733 99.4528 483.95 99.6784 484.219 99.8516C484.492 100.025 484.836 100.111 485.251 100.111C485.707 100.111 486.08 99.986 486.372 99.7354C486.664 99.4847 486.878 99.1543 487.015 98.7441C487.156 98.3294 487.227 97.876 487.227 97.3838V97.2402ZM494.247 93.6035H495.607L492.641 102.142C492.572 102.324 492.481 102.52 492.367 102.729C492.258 102.944 492.117 103.146 491.943 103.338C491.775 103.529 491.567 103.684 491.321 103.803C491.075 103.926 490.784 103.987 490.446 103.987C490.378 103.987 490.296 103.98 490.2 103.967C490.104 103.953 490.013 103.937 489.927 103.919C489.84 103.905 489.774 103.892 489.729 103.878V102.859C489.765 102.864 489.822 102.871 489.899 102.88C489.981 102.889 490.038 102.894 490.07 102.894C490.499 102.894 490.834 102.805 491.075 102.627C491.317 102.449 491.513 102.132 491.663 101.677L492.189 100.234L494.247 93.6035ZM492.606 99.3525L492.935 100.686L492.019 101.144L489.305 93.6035H490.699L492.606 99.3525ZM498.021 101H496.742V93.6035H497.986L498.021 94.7656V101ZM500.324 94.7314C500.215 94.7087 500.112 94.695 500.017 94.6904C499.925 94.6813 499.821 94.6768 499.702 94.6768C499.315 94.6768 498.987 94.7565 498.718 94.916C498.453 95.0755 498.248 95.2965 498.103 95.5791C497.957 95.8571 497.866 96.1761 497.829 96.5361L497.467 96.7412C497.467 96.1442 497.547 95.5996 497.706 95.1074C497.866 94.6107 498.114 94.2142 498.451 93.918C498.793 93.6172 499.23 93.4668 499.764 93.4668C499.85 93.4668 499.953 93.4782 500.071 93.501C500.194 93.5192 500.279 93.5397 500.324 93.5625V94.7314ZM502.874 101H501.596V93.6035H502.874V101ZM501.5 91.6348C501.5 91.4342 501.562 91.2633 501.685 91.1221C501.812 90.9808 501.999 90.9102 502.245 90.9102C502.491 90.9102 502.678 90.9808 502.806 91.1221C502.938 91.2633 503.004 91.4342 503.004 91.6348C503.004 91.8307 502.938 91.9993 502.806 92.1406C502.678 92.2773 502.491 92.3457 502.245 92.3457C501.999 92.3457 501.812 92.2773 501.685 92.1406C501.562 91.9993 501.5 91.8307 501.5 91.6348ZM510.845 93.6035V100.843C510.845 101.494 510.71 102.05 510.441 102.511C510.177 102.971 509.808 103.32 509.334 103.557C508.865 103.798 508.322 103.919 507.707 103.919C507.452 103.919 507.151 103.878 506.805 103.796C506.463 103.718 506.126 103.584 505.793 103.393C505.465 103.206 505.189 102.953 504.966 102.634L505.629 101.889C505.939 102.262 506.262 102.522 506.6 102.668C506.941 102.818 507.279 102.894 507.611 102.894C508.208 102.894 508.682 102.723 509.033 102.381C509.389 102.044 509.566 101.551 509.566 100.904V95.2305L509.683 93.6035H510.845ZM504.59 97.2402C504.59 96.4883 504.708 95.8298 504.945 95.2646C505.182 94.695 505.52 94.2529 505.957 93.9385C506.395 93.624 506.914 93.4668 507.516 93.4668C507.98 93.4668 508.386 93.5488 508.732 93.7129C509.083 93.8724 509.38 94.1048 509.621 94.4102C509.867 94.7155 510.061 95.0846 510.202 95.5176C510.348 95.9505 510.448 96.4382 510.503 96.9805V97.6436C510.435 98.359 510.282 98.9788 510.045 99.5029C509.812 100.022 509.487 100.426 509.067 100.713C508.648 100.995 508.126 101.137 507.502 101.137C506.91 101.137 506.395 100.975 505.957 100.651C505.524 100.323 505.187 99.8766 504.945 99.3115C504.708 98.7464 504.59 98.1038 504.59 97.3838V97.2402ZM505.868 97.3838C505.868 97.876 505.934 98.3249 506.066 98.7305C506.203 99.1361 506.415 99.4619 506.702 99.708C506.989 99.9495 507.361 100.07 507.816 100.07C508.236 100.07 508.58 99.9814 508.849 99.8037C509.118 99.626 509.334 99.3913 509.498 99.0996C509.662 98.8079 509.79 98.4912 509.881 98.1494V96.4883C509.826 96.2376 509.749 95.9961 509.648 95.7637C509.548 95.5267 509.416 95.3171 509.252 95.1348C509.088 94.9479 508.887 94.7998 508.65 94.6904C508.418 94.5811 508.145 94.5264 507.83 94.5264C507.37 94.5264 506.994 94.6494 506.702 94.8955C506.415 95.1416 506.203 95.472 506.066 95.8867C505.934 96.2969 505.868 96.748 505.868 97.2402V97.3838ZM514.03 101H512.752V90.5H514.03V101ZM513.196 96.9941C513.205 96.3197 513.335 95.7181 513.586 95.1895C513.837 94.6562 514.185 94.237 514.632 93.9316C515.083 93.6217 515.607 93.4668 516.204 93.4668C516.692 93.4668 517.111 93.5579 517.462 93.7402C517.817 93.918 518.091 94.2028 518.282 94.5947C518.478 94.9867 518.576 95.5062 518.576 96.1533V101H517.298V96.1396C517.298 95.7523 517.241 95.4401 517.127 95.2031C517.018 94.9661 516.854 94.7952 516.635 94.6904C516.416 94.5811 516.147 94.5264 515.828 94.5264C515.514 94.5264 515.229 94.5924 514.974 94.7246C514.718 94.8568 514.497 95.0391 514.311 95.2715C514.124 95.5039 513.98 95.7705 513.88 96.0713C513.78 96.3675 513.729 96.682 513.729 97.0146L513.196 96.9941ZM523.573 94.5674H519.567V93.6035H523.573V94.5674ZM522.192 91.8057V99.168C522.192 99.4232 522.231 99.6146 522.309 99.7422C522.386 99.8698 522.486 99.9541 522.609 99.9951C522.732 100.036 522.865 100.057 523.006 100.057C523.111 100.057 523.22 100.048 523.334 100.029C523.452 100.011 523.539 99.9951 523.594 99.9814L523.601 101C523.5 101.032 523.368 101.062 523.204 101.089C523.045 101.121 522.851 101.137 522.623 101.137C522.313 101.137 522.028 101.075 521.769 100.952C521.509 100.829 521.301 100.624 521.146 100.337C520.992 100.045 520.914 99.6533 520.914 99.1611V91.8057H522.192ZM535.208 96.9121C535.208 97.6276 535.005 98.1654 534.6 98.5254C534.194 98.8809 533.643 99.0586 532.945 99.0586C532.216 99.0586 531.637 98.8148 531.209 98.3271C530.785 97.835 530.573 97.1969 530.573 96.4131V95.627C530.573 94.8431 530.785 94.2074 531.209 93.7197C531.637 93.2275 532.216 92.9814 532.945 92.9814C533.643 92.9814 534.194 93.1592 534.6 93.5146C535.01 93.8701 535.215 94.4056 535.215 95.1211H534.217C534.217 94.6699 534.107 94.3464 533.889 94.1504C533.674 93.9499 533.36 93.8496 532.945 93.8496C532.645 93.8496 532.392 93.9271 532.187 94.082C531.981 94.2324 531.826 94.4398 531.722 94.7041C531.617 94.9684 531.564 95.2738 531.564 95.6201V96.4131C531.564 96.9372 531.681 97.3633 531.913 97.6914C532.15 98.0195 532.494 98.1836 532.945 98.1836C533.36 98.1836 533.674 98.0879 533.889 97.8965C534.103 97.7005 534.21 97.3724 534.21 96.9121H535.208ZM528.974 96.0166C528.974 96.6227 529.078 97.1878 529.288 97.7119C529.498 98.236 529.789 98.694 530.163 99.0859C530.537 99.4779 530.967 99.7832 531.455 100.002C531.947 100.221 532.474 100.33 533.034 100.33C533.595 100.33 534.119 100.221 534.606 100.002C535.099 99.7832 535.529 99.4779 535.898 99.0859C536.272 98.694 536.564 98.236 536.773 97.7119C536.983 97.1878 537.088 96.6227 537.088 96.0166C537.088 95.4059 536.983 94.8408 536.773 94.3213C536.564 93.8018 536.272 93.3483 535.898 92.9609C535.529 92.569 535.099 92.266 534.606 92.0518C534.119 91.833 533.595 91.7236 533.034 91.7236C532.474 91.7236 531.947 91.833 531.455 92.0518C530.967 92.266 530.537 92.569 530.163 92.9609C529.789 93.3483 529.498 93.8018 529.288 94.3213C529.078 94.8408 528.974 95.4059 528.974 96.0166ZM528.181 96.0166C528.181 95.292 528.306 94.6198 528.557 94C528.807 93.3802 529.156 92.8402 529.603 92.3799C530.049 91.915 530.564 91.555 531.147 91.2998C531.735 91.04 532.364 90.9102 533.034 90.9102C533.704 90.9102 534.331 91.04 534.914 91.2998C535.502 91.555 536.017 91.915 536.459 92.3799C536.906 92.8402 537.254 93.3802 537.505 94C537.756 94.6198 537.881 95.292 537.881 96.0166C537.881 96.7412 537.756 97.4134 537.505 98.0332C537.254 98.653 536.906 99.1976 536.459 99.667C536.017 100.132 535.502 100.494 534.914 100.754C534.331 101.014 533.704 101.144 533.034 101.144C532.364 101.144 531.735 101.014 531.147 100.754C530.564 100.494 530.049 100.132 529.603 99.667C529.156 99.1976 528.807 98.653 528.557 98.0332C528.306 97.4134 528.181 96.7412 528.181 96.0166ZM545.92 101H539.392V100.098L542.652 96.4678C543.058 96.0212 543.37 95.6429 543.589 95.333C543.812 95.0186 543.967 94.736 544.054 94.4854C544.14 94.2347 544.184 93.9795 544.184 93.7197C544.184 93.2275 544.033 92.8083 543.732 92.4619C543.436 92.111 543.012 91.9355 542.461 91.9355C542.014 91.9355 541.643 92.0221 541.347 92.1953C541.055 92.3685 540.836 92.6077 540.69 92.9131C540.549 93.2184 540.479 93.5716 540.479 93.9727H539.2C539.2 93.4121 539.323 92.8994 539.569 92.4346C539.815 91.9697 540.18 91.6006 540.663 91.3271C541.151 91.0492 541.75 90.9102 542.461 90.9102C543.4 90.9102 544.133 91.154 544.662 91.6416C545.195 92.1292 545.462 92.7718 545.462 93.5693C545.462 93.9613 545.378 94.3555 545.209 94.752C545.04 95.1484 544.815 95.5426 544.532 95.9346C544.25 96.3219 543.938 96.7002 543.596 97.0693L540.93 99.9746H545.92V101ZM553.515 96.7549C553.515 97.835 553.387 98.6963 553.132 99.3389C552.881 99.9769 552.521 100.437 552.052 100.72C551.582 100.998 551.026 101.137 550.384 101.137C549.75 101.137 549.197 100.998 548.723 100.72C548.249 100.437 547.88 99.9769 547.615 99.3389C547.355 98.6963 547.226 97.835 547.226 96.7549V95.2305C547.226 94.1458 547.353 93.2891 547.608 92.6602C547.868 92.0312 548.233 91.5824 548.702 91.3135C549.176 91.0446 549.732 90.9102 550.37 90.9102C551.013 90.9102 551.569 91.0446 552.038 91.3135C552.507 91.5824 552.87 92.0312 553.125 92.6602C553.385 93.2891 553.515 94.1458 553.515 95.2305V96.7549ZM552.236 95.0186C552.236 94.2712 552.166 93.6719 552.024 93.2207C551.883 92.7695 551.674 92.4437 551.396 92.2432C551.118 92.0381 550.776 91.9355 550.37 91.9355C549.969 91.9355 549.63 92.0381 549.352 92.2432C549.074 92.4437 548.862 92.7695 548.716 93.2207C548.575 93.6719 548.504 94.2712 548.504 95.0186V96.9531C548.504 97.696 548.577 98.2998 548.723 98.7646C548.868 99.2295 549.08 99.5713 549.358 99.79C549.641 100.004 549.983 100.111 550.384 100.111C550.794 100.111 551.136 100.004 551.409 99.79C551.683 99.5713 551.888 99.2295 552.024 98.7646C552.166 98.2998 552.236 97.696 552.236 96.9531V95.0186ZM561.67 101H555.142V100.098L558.402 96.4678C558.808 96.0212 559.12 95.6429 559.339 95.333C559.562 95.0186 559.717 94.736 559.804 94.4854C559.89 94.2347 559.934 93.9795 559.934 93.7197C559.934 93.2275 559.783 92.8083 559.482 92.4619C559.186 92.111 558.762 91.9355 558.211 91.9355C557.764 91.9355 557.393 92.0221 557.097 92.1953C556.805 92.3685 556.586 92.6077 556.44 92.9131C556.299 93.2184 556.229 93.5716 556.229 93.9727H554.95C554.95 93.4121 555.073 92.8994 555.319 92.4346C555.565 91.9697 555.93 91.6006 556.413 91.3271C556.901 91.0492 557.5 90.9102 558.211 90.9102C559.15 90.9102 559.883 91.154 560.412 91.6416C560.945 92.1292 561.212 92.7718 561.212 93.5693C561.212 93.9613 561.128 94.3555 560.959 94.752C560.79 95.1484 560.565 95.5426 560.282 95.9346C560 96.3219 559.688 96.7002 559.346 97.0693L556.68 99.9746H561.67V101ZM569.265 96.7549C569.265 97.835 569.137 98.6963 568.882 99.3389C568.631 99.9769 568.271 100.437 567.802 100.72C567.332 100.998 566.776 101.137 566.134 101.137C565.5 101.137 564.947 100.998 564.473 100.72C563.999 100.437 563.63 99.9769 563.365 99.3389C563.105 98.6963 562.976 97.835 562.976 96.7549V95.2305C562.976 94.1458 563.103 93.2891 563.358 92.6602C563.618 92.0312 563.983 91.5824 564.452 91.3135C564.926 91.0446 565.482 90.9102 566.12 90.9102C566.763 90.9102 567.319 91.0446 567.788 91.3135C568.257 91.5824 568.62 92.0312 568.875 92.6602C569.135 93.2891 569.265 94.1458 569.265 95.2305V96.7549ZM567.986 95.0186C567.986 94.2712 567.916 93.6719 567.774 93.2207C567.633 92.7695 567.424 92.4437 567.146 92.2432C566.868 92.0381 566.526 91.9355 566.12 91.9355C565.719 91.9355 565.38 92.0381 565.102 92.2432C564.824 92.4437 564.612 92.7695 564.466 93.2207C564.325 93.6719 564.254 94.2712 564.254 95.0186V96.9531C564.254 97.696 564.327 98.2998 564.473 98.7646C564.618 99.2295 564.83 99.5713 565.108 99.79C565.391 100.004 565.733 100.111 566.134 100.111C566.544 100.111 566.886 100.004 567.159 99.79C567.433 99.5713 567.638 99.2295 567.774 98.7646C567.916 98.2998 567.986 97.696 567.986 96.9531V95.0186ZM575.096 101H573.729L577.529 91.0469H578.404L578.384 91.9219L575.096 101ZM577.837 91.9219L577.823 91.0469H578.691L582.499 101H581.139L577.837 91.9219ZM580.975 98.3955H575.376V97.3223H580.975V98.3955ZM585.028 101H583.75V90.5H585.028V101ZM588.433 101H587.154V90.5H588.433V101ZM595.2 101H593.922V93.6035H595.166L595.2 94.7656V101ZM597.504 94.7314C597.395 94.7087 597.292 94.695 597.196 94.6904C597.105 94.6813 597 94.6768 596.882 94.6768C596.494 94.6768 596.166 94.7565 595.897 94.916C595.633 95.0755 595.428 95.2965 595.282 95.5791C595.136 95.8571 595.045 96.1761 595.009 96.5361L594.646 96.7412C594.646 96.1442 594.726 95.5996 594.886 95.1074C595.045 94.6107 595.294 94.2142 595.631 93.918C595.973 93.6172 596.41 93.4668 596.943 93.4668C597.03 93.4668 597.132 93.4782 597.251 93.501C597.374 93.5192 597.458 93.5397 597.504 93.5625V94.7314ZM600.054 101H598.775V93.6035H600.054V101ZM598.68 91.6348C598.68 91.4342 598.741 91.2633 598.864 91.1221C598.992 90.9808 599.179 90.9102 599.425 90.9102C599.671 90.9102 599.858 90.9808 599.985 91.1221C600.118 91.2633 600.184 91.4342 600.184 91.6348C600.184 91.8307 600.118 91.9993 599.985 92.1406C599.858 92.2773 599.671 92.3457 599.425 92.3457C599.179 92.3457 598.992 92.2773 598.864 92.1406C598.741 91.9993 598.68 91.8307 598.68 91.6348ZM608.024 93.6035V100.843C608.024 101.494 607.89 102.05 607.621 102.511C607.357 102.971 606.988 103.32 606.514 103.557C606.044 103.798 605.502 103.919 604.887 103.919C604.632 103.919 604.331 103.878 603.984 103.796C603.643 103.718 603.305 103.584 602.973 103.393C602.645 103.206 602.369 102.953 602.146 102.634L602.809 101.889C603.118 102.262 603.442 102.522 603.779 102.668C604.121 102.818 604.458 102.894 604.791 102.894C605.388 102.894 605.862 102.723 606.213 102.381C606.568 102.044 606.746 101.551 606.746 100.904V95.2305L606.862 93.6035H608.024ZM601.77 97.2402C601.77 96.4883 601.888 95.8298 602.125 95.2646C602.362 94.695 602.699 94.2529 603.137 93.9385C603.574 93.624 604.094 93.4668 604.695 93.4668C605.16 93.4668 605.566 93.5488 605.912 93.7129C606.263 93.8724 606.559 94.1048 606.801 94.4102C607.047 94.7155 607.241 95.0846 607.382 95.5176C607.528 95.9505 607.628 96.4382 607.683 96.9805V97.6436C607.614 98.359 607.462 98.9788 607.225 99.5029C606.992 100.022 606.666 100.426 606.247 100.713C605.828 100.995 605.306 101.137 604.682 101.137C604.089 101.137 603.574 100.975 603.137 100.651C602.704 100.323 602.367 99.8766 602.125 99.3115C601.888 98.7464 601.77 98.1038 601.77 97.3838V97.2402ZM603.048 97.3838C603.048 97.876 603.114 98.3249 603.246 98.7305C603.383 99.1361 603.595 99.4619 603.882 99.708C604.169 99.9495 604.54 100.07 604.996 100.07C605.415 100.07 605.759 99.9814 606.028 99.8037C606.297 99.626 606.514 99.3913 606.678 99.0996C606.842 98.8079 606.969 98.4912 607.061 98.1494V96.4883C607.006 96.2376 606.928 95.9961 606.828 95.7637C606.728 95.5267 606.596 95.3171 606.432 95.1348C606.268 94.9479 606.067 94.7998 605.83 94.6904C605.598 94.5811 605.324 94.5264 605.01 94.5264C604.549 94.5264 604.174 94.6494 603.882 94.8955C603.595 95.1416 603.383 95.472 603.246 95.8867C603.114 96.2969 603.048 96.748 603.048 97.2402V97.3838ZM611.21 101H609.932V90.5H611.21V101ZM610.376 96.9941C610.385 96.3197 610.515 95.7181 610.766 95.1895C611.016 94.6562 611.365 94.237 611.812 93.9316C612.263 93.6217 612.787 93.4668 613.384 93.4668C613.871 93.4668 614.291 93.5579 614.642 93.7402C614.997 93.918 615.271 94.2028 615.462 94.5947C615.658 94.9867 615.756 95.5062 615.756 96.1533V101H614.478V96.1396C614.478 95.7523 614.421 95.4401 614.307 95.2031C614.197 94.9661 614.033 94.7952 613.814 94.6904C613.596 94.5811 613.327 94.5264 613.008 94.5264C612.693 94.5264 612.409 94.5924 612.153 94.7246C611.898 94.8568 611.677 95.0391 611.49 95.2715C611.303 95.5039 611.16 95.7705 611.06 96.0713C610.959 96.3675 610.909 96.682 610.909 97.0146L610.376 96.9941ZM620.753 94.5674H616.747V93.6035H620.753V94.5674ZM619.372 91.8057V99.168C619.372 99.4232 619.411 99.6146 619.488 99.7422C619.566 99.8698 619.666 99.9541 619.789 99.9951C619.912 100.036 620.044 100.057 620.186 100.057C620.29 100.057 620.4 100.048 620.514 100.029C620.632 100.011 620.719 99.9951 620.773 99.9814L620.78 101C620.68 101.032 620.548 101.062 620.384 101.089C620.224 101.121 620.031 101.137 619.803 101.137C619.493 101.137 619.208 101.075 618.948 100.952C618.688 100.829 618.481 100.624 618.326 100.337C618.171 100.045 618.094 99.6533 618.094 99.1611V91.8057H619.372ZM626.529 99.0381C626.529 98.8558 626.488 98.6872 626.406 98.5322C626.329 98.3727 626.169 98.2292 625.928 98.1016C625.686 97.9694 625.322 97.8532 624.834 97.7529C624.287 97.639 623.813 97.4954 623.412 97.3223C623.016 97.1445 622.708 96.9189 622.489 96.6455C622.275 96.3721 622.168 96.0326 622.168 95.627C622.168 95.235 622.28 94.8773 622.503 94.5537C622.731 94.2256 623.05 93.9635 623.46 93.7676C623.875 93.5671 624.358 93.4668 624.909 93.4668C625.502 93.4668 626.007 93.5716 626.427 93.7812C626.851 93.9863 627.174 94.2643 627.397 94.6152C627.621 94.9616 627.732 95.3467 627.732 95.7705H626.454C626.454 95.4652 626.32 95.1758 626.051 94.9023C625.786 94.6289 625.406 94.4922 624.909 94.4922C624.563 94.4922 624.28 94.5469 624.062 94.6562C623.847 94.7611 623.69 94.8978 623.59 95.0664C623.494 95.2305 623.446 95.4036 623.446 95.5859C623.446 95.7682 623.492 95.9277 623.583 96.0645C623.674 96.1966 623.84 96.3151 624.082 96.4199C624.328 96.5247 624.684 96.6296 625.148 96.7344C625.755 96.8711 626.254 97.0352 626.646 97.2266C627.037 97.418 627.329 97.6527 627.521 97.9307C627.712 98.2087 627.808 98.5482 627.808 98.9492C627.808 99.3776 627.689 99.7581 627.452 100.091C627.215 100.419 626.882 100.676 626.454 100.863C626.026 101.046 625.522 101.137 624.943 101.137C624.292 101.137 623.74 101.021 623.289 100.788C622.838 100.556 622.496 100.257 622.264 99.8926C622.031 99.5234 621.915 99.1338 621.915 98.7236H623.193C623.216 99.07 623.316 99.3457 623.494 99.5508C623.676 99.7513 623.897 99.8949 624.157 99.9814C624.422 100.068 624.684 100.111 624.943 100.111C625.29 100.111 625.579 100.066 625.812 99.9746C626.049 99.8789 626.226 99.7513 626.345 99.5918C626.468 99.4277 626.529 99.2432 626.529 99.0381ZM634.206 101H632.928V93.6035H634.172L634.206 94.7656V101ZM636.51 94.7314C636.4 94.7087 636.298 94.695 636.202 94.6904C636.111 94.6813 636.006 94.6768 635.888 94.6768C635.5 94.6768 635.172 94.7565 634.903 94.916C634.639 95.0755 634.434 95.2965 634.288 95.5791C634.142 95.8571 634.051 96.1761 634.015 96.5361L633.652 96.7412C633.652 96.1442 633.732 95.5996 633.892 95.1074C634.051 94.6107 634.299 94.2142 634.637 93.918C634.979 93.6172 635.416 93.4668 635.949 93.4668C636.036 93.4668 636.138 93.4782 636.257 93.501C636.38 93.5192 636.464 93.5397 636.51 93.5625V94.7314ZM640.748 101.137C640.06 101.137 639.461 100.984 638.95 100.679C638.444 100.369 638.05 99.945 637.768 99.4072C637.49 98.8695 637.351 98.2542 637.351 97.5615V97.2676C637.351 96.4655 637.503 95.7819 637.809 95.2168C638.118 94.6471 638.52 94.2142 639.012 93.918C639.508 93.6172 640.033 93.4668 640.584 93.4668C641.295 93.4668 641.874 93.6263 642.32 93.9453C642.771 94.2598 643.102 94.6904 643.312 95.2373C643.526 95.7796 643.633 96.3949 643.633 97.083V97.6504H638.109V96.625H642.354V96.5293C642.336 96.2012 642.27 95.8822 642.156 95.5723C642.042 95.2578 641.86 95.0003 641.609 94.7998C641.359 94.5947 641.017 94.4922 640.584 94.4922C640.201 94.4922 639.862 94.6016 639.565 94.8203C639.274 95.0345 639.044 95.349 638.875 95.7637C638.711 96.1738 638.629 96.6751 638.629 97.2676V97.5615C638.629 98.0309 638.715 98.4593 638.889 98.8467C639.062 99.2295 639.312 99.5371 639.641 99.7695C639.969 99.9974 640.361 100.111 640.816 100.111C641.263 100.111 641.641 100.02 641.951 99.8379C642.261 99.6556 642.532 99.4118 642.765 99.1064L643.537 99.708C643.3 100.073 642.958 100.403 642.512 100.699C642.07 100.991 641.482 101.137 640.748 101.137ZM649.416 99.0381C649.416 98.8558 649.375 98.6872 649.293 98.5322C649.215 98.3727 649.056 98.2292 648.814 98.1016C648.573 97.9694 648.208 97.8532 647.721 97.7529C647.174 97.639 646.7 97.4954 646.299 97.3223C645.902 97.1445 645.595 96.9189 645.376 96.6455C645.162 96.3721 645.055 96.0326 645.055 95.627C645.055 95.235 645.166 94.8773 645.39 94.5537C645.618 94.2256 645.937 93.9635 646.347 93.7676C646.761 93.5671 647.244 93.4668 647.796 93.4668C648.388 93.4668 648.894 93.5716 649.313 93.7812C649.737 93.9863 650.061 94.2643 650.284 94.6152C650.507 94.9616 650.619 95.3467 650.619 95.7705H649.341C649.341 95.4652 649.206 95.1758 648.938 94.9023C648.673 94.6289 648.293 94.4922 647.796 94.4922C647.45 94.4922 647.167 94.5469 646.948 94.6562C646.734 94.7611 646.577 94.8978 646.477 95.0664C646.381 95.2305 646.333 95.4036 646.333 95.5859C646.333 95.7682 646.379 95.9277 646.47 96.0645C646.561 96.1966 646.727 96.3151 646.969 96.4199C647.215 96.5247 647.57 96.6296 648.035 96.7344C648.641 96.8711 649.14 97.0352 649.532 97.2266C649.924 97.418 650.216 97.6527 650.407 97.9307C650.599 98.2087 650.694 98.5482 650.694 98.9492C650.694 99.3776 650.576 99.7581 650.339 100.091C650.102 100.419 649.769 100.676 649.341 100.863C648.912 101.046 648.409 101.137 647.83 101.137C647.178 101.137 646.627 101.021 646.176 100.788C645.725 100.556 645.383 100.257 645.15 99.8926C644.918 99.5234 644.802 99.1338 644.802 98.7236H646.08C646.103 99.07 646.203 99.3457 646.381 99.5508C646.563 99.7513 646.784 99.8949 647.044 99.9814C647.308 100.068 647.57 100.111 647.83 100.111C648.176 100.111 648.466 100.066 648.698 99.9746C648.935 99.8789 649.113 99.7513 649.231 99.5918C649.354 99.4277 649.416 99.2432 649.416 99.0381ZM655.418 101.137C654.73 101.137 654.131 100.984 653.62 100.679C653.114 100.369 652.72 99.945 652.438 99.4072C652.16 98.8695 652.021 98.2542 652.021 97.5615V97.2676C652.021 96.4655 652.173 95.7819 652.479 95.2168C652.788 94.6471 653.189 94.2142 653.682 93.918C654.178 93.6172 654.702 93.4668 655.254 93.4668C655.965 93.4668 656.544 93.6263 656.99 93.9453C657.441 94.2598 657.772 94.6904 657.981 95.2373C658.196 95.7796 658.303 96.3949 658.303 97.083V97.6504H652.779V96.625H657.024V96.5293C657.006 96.2012 656.94 95.8822 656.826 95.5723C656.712 95.2578 656.53 95.0003 656.279 94.7998C656.029 94.5947 655.687 94.4922 655.254 94.4922C654.871 94.4922 654.532 94.6016 654.235 94.8203C653.944 95.0345 653.714 95.349 653.545 95.7637C653.381 96.1738 653.299 96.6751 653.299 97.2676V97.5615C653.299 98.0309 653.385 98.4593 653.559 98.8467C653.732 99.2295 653.982 99.5371 654.311 99.7695C654.639 99.9974 655.031 100.111 655.486 100.111C655.933 100.111 656.311 100.02 656.621 99.8379C656.931 99.6556 657.202 99.4118 657.435 99.1064L658.207 99.708C657.97 100.073 657.628 100.403 657.182 100.699C656.74 100.991 656.152 101.137 655.418 101.137ZM661.058 101H659.779V93.6035H661.023L661.058 94.7656V101ZM663.361 94.7314C663.252 94.7087 663.149 94.695 663.054 94.6904C662.963 94.6813 662.858 94.6768 662.739 94.6768C662.352 94.6768 662.024 94.7565 661.755 94.916C661.491 95.0755 661.285 95.2965 661.14 95.5791C660.994 95.8571 660.903 96.1761 660.866 96.5361L660.504 96.7412C660.504 96.1442 660.584 95.5996 660.743 95.1074C660.903 94.6107 661.151 94.2142 661.488 93.918C661.83 93.6172 662.268 93.4668 662.801 93.4668C662.887 93.4668 662.99 93.4782 663.108 93.501C663.231 93.5192 663.316 93.5397 663.361 93.5625V94.7314ZM668.912 93.6035H670.218L667.565 101H666.704L666.902 99.8652L668.912 93.6035ZM667.299 99.8994L667.449 101H666.595L663.915 93.6035H665.221L667.299 99.8994ZM674.518 101.137C673.829 101.137 673.23 100.984 672.72 100.679C672.214 100.369 671.82 99.945 671.537 99.4072C671.259 98.8695 671.12 98.2542 671.12 97.5615V97.2676C671.12 96.4655 671.273 95.7819 671.578 95.2168C671.888 94.6471 672.289 94.2142 672.781 93.918C673.278 93.6172 673.802 93.4668 674.354 93.4668C675.064 93.4668 675.643 93.6263 676.09 93.9453C676.541 94.2598 676.871 94.6904 677.081 95.2373C677.295 95.7796 677.402 96.3949 677.402 97.083V97.6504H671.879V96.625H676.124V96.5293C676.106 96.2012 676.04 95.8822 675.926 95.5723C675.812 95.2578 675.63 95.0003 675.379 94.7998C675.128 94.5947 674.786 94.4922 674.354 94.4922C673.971 94.4922 673.631 94.6016 673.335 94.8203C673.043 95.0345 672.813 95.349 672.645 95.7637C672.48 96.1738 672.398 96.6751 672.398 97.2676V97.5615C672.398 98.0309 672.485 98.4593 672.658 98.8467C672.831 99.2295 673.082 99.5371 673.41 99.7695C673.738 99.9974 674.13 100.111 674.586 100.111C675.033 100.111 675.411 100.02 675.721 99.8379C676.031 99.6556 676.302 99.4118 676.534 99.1064L677.307 99.708C677.07 100.073 676.728 100.403 676.281 100.699C675.839 100.991 675.251 101.137 674.518 101.137ZM683.541 90.5H684.819V101H683.65L683.541 99.5645V90.5ZM678.571 97.2402C678.571 96.4883 678.692 95.8298 678.934 95.2646C679.18 94.695 679.521 94.2529 679.959 93.9385C680.396 93.624 680.909 93.4668 681.497 93.4668C682.117 93.4668 682.634 93.6104 683.049 93.8975C683.464 94.18 683.787 94.5833 684.02 95.1074C684.257 95.6315 684.409 96.2559 684.478 96.9805V97.6436C684.409 98.359 684.259 98.9788 684.026 99.5029C683.794 100.022 683.468 100.426 683.049 100.713C682.634 100.995 682.112 101.137 681.483 101.137C680.905 101.137 680.396 100.975 679.959 100.651C679.521 100.323 679.18 99.8766 678.934 99.3115C678.692 98.7464 678.571 98.1038 678.571 97.3838V97.2402ZM679.85 97.3838C679.85 97.876 679.916 98.3249 680.048 98.7305C680.185 99.1361 680.396 99.4619 680.684 99.708C680.971 99.9495 681.342 100.07 681.798 100.07C682.217 100.07 682.561 99.9814 682.83 99.8037C683.104 99.626 683.322 99.3913 683.486 99.0996C683.65 98.8079 683.778 98.4912 683.869 98.1494V96.4883C683.814 96.2376 683.735 95.9961 683.63 95.7637C683.53 95.5267 683.397 95.3171 683.233 95.1348C683.074 94.9479 682.876 94.7998 682.639 94.6904C682.406 94.5811 682.131 94.5264 681.812 94.5264C681.351 94.5264 680.975 94.6494 680.684 94.8955C680.396 95.1416 680.185 95.472 680.048 95.8867C679.916 96.2969 679.85 96.748 679.85 97.2402V97.3838Z" fill="#21243D"/>
</svg>
