<svg width="66" height="218" viewBox="0 0 66 218" fill="none" xmlns="http://www.w3.org/2000/svg">
<g filter="url(#filter0_d_252_13)">
<rect width="50.5488" height="46.2374" transform="matrix(0.00567988 -0.999984 0.999984 0.00572126 4.40479 137.774)" fill="#C4C4C4"/>
</g>
<g filter="url(#filter1_d_252_13)">
<rect width="50.5488" height="46.2374" transform="matrix(0.00567988 -0.999984 0.999984 0.00572126 4.83765 61.548)" fill="#C4C4C4"/>
</g>
<path d="M13.652 108.741C13.5933 118.401 21.369 126.27 31.0212 126.325C38.6539 126.368 45.1699 121.511 47.5914 114.708C47.8271 113.792 47.1739 113.929 46.7286 113.926L43.7013 113.909C44.2923 119.213 40.7833 119.408 40.1954 119.76C38.9647 120.472 38.6426 122.169 38.0596 121.658C37.4453 120.447 38.2297 119.221 40.3432 117.808C41.8764 116.785 41.63 114.772 41.3819 113.751C40.4652 113.523 39.6476 113.042 39.0146 112.382C37.999 117.868 34.6345 120.138 30.6502 120.116C28.7167 120.104 26.943 119.458 25.5165 118.199C23.1487 118.983 21.1303 118.1 20.8302 117.981C20.6399 115.711 22.4814 113.362 22.627 113.179C22.2867 111.888 22.1114 110.414 22.1208 108.766C22.1302 107.11 22.33 105.634 22.6889 104.335C22.3555 103.892 20.7977 101.696 21.001 99.5873C21.3025 99.4758 23.2838 98.6355 25.6116 99.3989C27.0562 98.1415 28.8528 97.5072 30.7903 97.5183C34.7824 97.5412 38.1247 99.865 39.0622 105.378C39.5288 104.909 40.0842 104.538 40.696 104.286C41.3078 104.034 41.9636 103.906 42.6253 103.91L47.0197 103.935C47.3715 103.906 47.719 103.939 47.7223 103.354C45.4296 96.4224 38.9228 91.4046 31.2237 91.3605C21.5676 91.3053 13.7069 99.0886 13.652 108.741Z" fill="black"/>
<path d="M12.4342 32.4469C12.374 43.0507 20.9211 51.6958 31.525 51.7565C42.1289 51.8171 50.7736 43.2704 50.8338 32.6666C50.894 22.0628 42.347 13.4177 31.7431 13.3571C21.1392 13.2964 12.4945 21.8431 12.4342 32.4469ZM39.5652 37.3022L39.5432 41.1902L27.0313 41.1186L27.0534 37.2306L39.5652 37.3022ZM25.5062 39.1898C25.4992 40.4178 24.6247 41.2068 23.5488 41.2006C22.4508 41.1944 21.6114 40.3716 21.6186 39.1176C21.6257 37.8636 22.474 37.1004 23.5722 37.0827C24.6481 37.0889 25.5136 37.8858 25.5062 39.1898ZM39.6459 23.1024L39.6238 26.9904L32.6899 26.9507C31.0759 26.9415 29.9767 27.4992 29.9687 28.9052C29.9626 29.9792 30.701 30.6214 31.4134 30.9075C31.6668 31.0129 32.0266 31.041 32.3846 31.043L39.5986 31.0843L39.5765 34.9742L31.0566 34.9255C29.4946 34.9166 28.1883 34.9591 27.064 35.0047L27.0832 31.6267L28.8222 31.4587L28.8226 31.3807C28.0096 30.864 26.8127 29.6031 26.8246 27.5052C26.8391 24.9472 28.564 23.039 32.248 23.0601L39.6459 23.1024Z" fill="black"/>
<g filter="url(#filter2_d_252_13)">
<rect width="45.5768" height="46.2374" transform="matrix(0.00567988 -0.999984 0.999984 0.00572126 4 209.038)" fill="#C4C4C4"/>
</g>
<path d="M22.4248 187.07C22.4117 185.161 23.246 183.357 24.5604 182.03L24.5643 182.03C23.9287 182.034 23.445 181.61 23.4409 181.02L23.4399 180.87C23.4335 179.938 24.3117 179.745 24.5892 179.743L34.4664 179.671C35.1141 179.731 35.4437 178.996 35.025 178.592C33.3857 177.021 26.6216 175.172 22.7436 179.662C19.1239 183.85 19.7651 189.432 21.8337 192.388C24.038 195.53 28.8728 197.514 33.3903 195.523C38.3154 193.348 39.7468 187.218 38.2521 183.587C37.4944 181.748 39.9792 180.881 40.8077 182.792C42.0604 185.671 41.9899 193.721 35.5016 197.525C31.1187 200.095 23.377 200.015 19.3203 193.304C16.215 188.175 17.0188 181.373 21.2706 177.247C25.7197 172.935 34.1008 173.124 37.3871 177.281C38.8815 179.164 37.4601 181.984 35.3016 181.979L34.5982 182.005C35.9135 183.314 36.6917 185.062 36.7048 186.971C36.7308 190.746 33.4266 194.093 29.6524 194.12C25.8375 194.146 22.4524 190.845 22.4264 187.07L22.4248 187.07ZM29.298 182.273C26.534 182.435 24.883 184.497 24.9001 186.975L24.9007 187.069C24.9204 189.925 27.1827 191.496 29.735 191.478C32.597 191.459 34.3912 189.53 34.3739 187.015C34.3546 184.208 32.2867 182.38 29.8546 182.262L29.298 182.273Z" fill="black"/>
<defs>
<filter id="filter0_d_252_13" x="0.404785" y="76.775" width="64.3456" height="69.3194" filterUnits="userSpaceOnUse" color-interpolation-filters="sRGB">
<feFlood flood-opacity="0" result="BackgroundImageFix"/>
<feColorMatrix in="SourceAlpha" type="matrix" values="0 0 0 0 0 0 0 0 0 0 0 0 0 0 0 0 0 0 127 0" result="hardAlpha"/>
<feOffset dy="4"/>
<feGaussianBlur stdDeviation="2"/>
<feColorMatrix type="matrix" values="0 0 0 0 0 0 0 0 0 0 0 0 0 0 0 0 0 0 0.25 0"/>
<feBlend mode="normal" in2="BackgroundImageFix" result="effect1_dropShadow_252_13"/>
<feBlend mode="normal" in="SourceGraphic" in2="effect1_dropShadow_252_13" result="shape"/>
</filter>
<filter id="filter1_d_252_13" x="0.837646" y="0.54895" width="64.3456" height="69.3194" filterUnits="userSpaceOnUse" color-interpolation-filters="sRGB">
<feFlood flood-opacity="0" result="BackgroundImageFix"/>
<feColorMatrix in="SourceAlpha" type="matrix" values="0 0 0 0 0 0 0 0 0 0 0 0 0 0 0 0 0 0 127 0" result="hardAlpha"/>
<feOffset dy="4"/>
<feGaussianBlur stdDeviation="2"/>
<feColorMatrix type="matrix" values="0 0 0 0 0 0 0 0 0 0 0 0 0 0 0 0 0 0 0.25 0"/>
<feBlend mode="normal" in2="BackgroundImageFix" result="effect1_dropShadow_252_13"/>
<feBlend mode="normal" in="SourceGraphic" in2="effect1_dropShadow_252_13" result="shape"/>
</filter>
<filter id="filter2_d_252_13" x="0" y="154.039" width="64.3115" height="63.3195" filterUnits="userSpaceOnUse" color-interpolation-filters="sRGB">
<feFlood flood-opacity="0" result="BackgroundImageFix"/>
<feColorMatrix in="SourceAlpha" type="matrix" values="0 0 0 0 0 0 0 0 0 0 0 0 0 0 0 0 0 0 127 0" result="hardAlpha"/>
<feOffset dy="4"/>
<feGaussianBlur stdDeviation="2"/>
<feColorMatrix type="matrix" values="0 0 0 0 0 0 0 0 0 0 0 0 0 0 0 0 0 0 0.25 0"/>
<feBlend mode="normal" in2="BackgroundImageFix" result="effect1_dropShadow_252_13"/>
<feBlend mode="normal" in="SourceGraphic" in2="effect1_dropShadow_252_13" result="shape"/>
</filter>
</defs>
</svg>
